# xmcd
#
# Track frame offsets:
#	150
#	11383
#	21080
#	32058
#	42420
#	51730
#	60333
#	71955
#	83233
#	94318
#	106093
#	116118
#	127488
#	139553
#	149050
#	158910
#	169230
#	178838
#	189598
#	199748
#
# Disc length: 2803 seconds
#
# Revision: 2
# Processed by: cddbd v1.5.2PL0 Copyright (c) Steve Scherf et al.
# Submitted via: audiograbber 1.83.01
#
DISCID=300af114
DTITLE=Little Richard - 20Greatest Hits
DYEAR=1900
DGENRE=Rock'n'Roll
TTITLE0=Lucille
TTITLE1=Good Golly miss Molly
TTITLE2=Tutti-Frutti
TTITLE3=Miss Ann
TTITLE4=Jenny,Jenny
TTITLE5=Ooh my soul!
TTITLE6=Treu fine mama
TTITLE7=The girl can´t help you
TTITLE8=Send me some lovin
TTITLE9=She´s got it
TTITLE10=Ready Teddy
TTITLE11=Can´t believe you wanna leave
TTITLE12=Slippin´&Slidin´
TTITLE13=By the light of the Silvery moon
TTITLE14=Baby face
TTITLE15=Bama Lama Bama loo
TTITLE16=Long tall sally
TTITLE17=Rip it up
TTITLE18=Keep a Knockin´
TTITLE19=Al around the world
EXTD=
EXTT0=
EXTT1=
EXTT2=
EXTT3=
EXTT4=
EXTT5=
EXTT6=
EXTT7=
EXTT8=
EXTT9=
EXTT10=
EXTT11=
EXTT12=
EXTT13=
EXTT14=
EXTT15=
EXTT16=
EXTT17=
EXTT18=
EXTT19=
PLAYORDER=
